PathFileType	4	(X/Y/Z)	C:/Users/beibeiliu/ov580/test_trc/User3\sequence.13_training_dense_right.trc
DataRate	CameraRate	NumFrames	NumMarkers	Units	OrigDataRate	OrigDataStartFrame	OrigNumFrames
120	120	8	19	mm	120	105	278
Frame#	Time	ThumbCMC			ThumbMCP			ThumbIP			ThumbTip			IndexMCP			IndexPIP			IndexTip			MiddleMCP			MiddlePIP			MiddleTip			RingMCP			RingPIP			RingTip			PinkyMCP			PinkyPIP			PinkyTip			BackHand1			BackHand2			BackHand3	
		X0	Y0	Z0	X1	Y1	Z1	X2	Y2	Z2	X3	Y3	Z3	X4	Y4	Z4	X5	Y5	Z5	X6	Y6	Z6	X7	Y7	Z7	X8	Y8	Z8	X9	Y9	Z9	X10	Y10	Z10	X11	Y11	Z11	X12	Y12	Z12	X13	Y13	Z13	X14	Y14	Z14	X15	Y15	Z15	X16	Y16	Z16	X17	Y17	Z17	X18	Y18	Z18	
104	0.866667	122.427	-15.2048	31.9414	108.305	-29.9869	-3.15295	123.167	-35.125	-30.7715	147.291	-36.6154	-37.8869	113.651	23.175	-34.4934	101.867	24.1092	-61.6593	98.3441	21.5045	-85.6482	139.238	31.2293	-44.1335	137.937	35.5925	-69.5557	133.262	41.3739	-98.7435	161.372	16.7806	-43.7895	156.651	18.9398	-68.7453	158.954	15.4573	-95.5274	177.259	-11.6344	-36.3299	165.347	-37.9928	-40.7738	151.763	-45.1297	-11.0583	171.353	17.7448	10.9765	178.702	10.1791	39.3936	144.202	16.5268	29.3002	
105	0.875	121.094	-15.6684	31.0354	110.469	-32.3966	-2.53051	125.213	-38.2485	-32.9785	153.367	-35.9146	-36.6576	114.182	20.8394	-37.0021	103.669	20.7616	-60.0262	98.0451	20.2763	-82.94	140.819	27.3236	-44.4126	137.527	31.3483	-67.1033	131.564	39.0812	-97.9879	159.244	15.5957	-45.4194	156.991	16.5249	-68.5576	158.012	16.0629	-90.9724	178.099	-13.3526	-35.2128	163.897	-39.8222	-35.8523	155.562	-44.1889	-8.75485	169.969	17.5629	8.40132	175.283	12.5095	39.3999	139.439	16.354	27.3005	
106	0.883333	117.664	-19.1142	32.3038	110.914	-35.0083	-1.89055	128.233	-38.8962	-31.7927	153.513	-38.1347	-34.2165	117.462	17.5392	-37.6897	108.025	18.3368	-59.227	99.7634	18.5993	-85.594	143.304	25.2311	-45.4049	138.472	30.9789	-70.0603	132.625	38.9574	-100.629	160.647	14.8373	-43.4675	160.284	14.7947	-65.2061	159.154	14.4348	-89.76	182.314	-13.4626	-31.8746	170.794	-42.2852	-32.3386	163.124	-45.9854	-6.52875	173.152	18.8825	9.13835	178.543	12.6194	40.7923	139.488	16.2454	26.8058	
107	0.891667	118.965	-23.398	32.0498	117.104	-36.3234	-1.89247	133.025	-39.4555	-31.3274	159.116	-37.2318	-35.3622	114.844	15.2232	-35.9786	102.629	15.7169	-61.3077	98.2219	15.2217	-88.3954	140.187	25.599	-45.0022	136.166	29.5257	-68.5739	136.224	36.1825	-96.068	161.26	14.1433	-41.246	165.529	16.0375	-67.335	162.497	14.9016	-90.1535	183.645	-13.7405	-32.8159	175.969	-38.994	-35.1416	161.927	-44.812	-6.49861	170.837	17.5572	10.9702	172.11	13.8918	39.6804	137.381	13.1186	29.2618	
108	0.9	122.199	-25.7987	30.9386	117.837	-39.3761	-6.02978	134.411	-43.7346	-33.7666	162.909	-35.7886	-33.5654	116.405	11.8851	-35.9406	105.525	13.067	-64.4036	98.9851	12.7203	-88.7273	139.957	21.7842	-39.578	141.005	28.9939	-67.3055	134.601	34.8991	-96.7376	163.075	14.526	-42.9089	167.829	16.3949	-65.34	169.353	16.5933	-92.1467	184.705	-12.7901	-33.2406	178.876	-36.5425	-34.9659	167.432	-45.9747	-5.62466	169.417	16.4134	13.2346	167.469	13.632	41.6528	134.966	12.3673	29.0382	
109	0.908333	119.816	-27.8081	28.8201	119.754	-41.1576	-4.6524	140.603	-42.4077	-34.3268	167.16	-34.7847	-32.3247	116.33	8.71223	-35.7291	108.186	9.3586	-61.4679	102.386	12.1097	-90.1	144.448	22.5386	-45.1369	138.192	26.1543	-68.7864	139.56	34.4874	-96.7131	168.183	14.146	-40.892	170.996	15.9917	-61.9955	172.884	15.7151	-89.2268	185.218	-8.886	-31.5089	182.504	-37.6054	-33.8047	169.337	-43.6634	-8.00665	166.844	16.1929	13.5047	169.508	14.0705	42.5369	135.701	8.04007	29.007	
110	0.916667	119.622	-27.8702	23.8214	122.641	-43.6159	-8.25707	140.651	-46.8325	-34.9575	172.11	-36.1326	-35.4658	122.654	8.05219	-39.0733	112.532	7.50131	-67.4418	104.536	8.48851	-89.9788	142.643	19.8074	-42.6328	143.684	25.9915	-73.5667	142.022	33.2791	-100.742	169	12.6814	-38.5138	169.533	15.0859	-66.5679	174.159	13.8682	-87.6315	189.002	-9.27066	-30.6107	183.843	-35.9355	-34.6555	174.178	-46.7551	-6.02547	168.251	15.7206	14.2726	167.888	10.8373	44.5173	134.049	9.86957	25.3921	
111	0.925	123.958	-29.1095	23.9577	125.393	-45.7372	-6.65347	143.304	-49.374	-33.0892	172.708	-39.4614	-32.9807	122.466	5.08461	-41.8667	113.285	3.73339	-68.7571	106.673	2.36242	-92.5726	146.841	17.391	-44.9498	143.05	20.5049	-70.8793	142.68	29.017	-104.318	171.576	10.7668	-40.3121	171.983	10.7702	-65.1726	178.178	11.3618	-91.8833	188.473	-10.3578	-27.2276	187.206	-38.47	-31.9011	177.318	-47.7912	-6.22051	163.52	15.5691	9.80274	169.259	13.0363	41.7404	133.157	7.97863	27.8262	
